<svg width="160" height="177" viewBox="0 0 160 177" fill="none" xmlns="http://www.w3.org/2000/svg">
<path d="M30.6667 135.157C15.5275 121.608 6 101.916 6 80C6 39.131 39.131 6 80 6C120.869 6 154 39.131 154 80C154 101.916 144.472 121.608 129.333 135.157M45.4862 102.346C41.3127 95.9125 38.8889 88.2395 38.8889 80C38.8889 57.295 57.295 38.8889 80 38.8889C102.705 38.8889 121.111 57.295 121.111 80C121.111 88.2288 118.694 95.8927 114.53 102.321M80 170.444C70.9177 170.444 63.5556 163.082 63.5556 154V137.556C63.5556 128.473 70.9177 121.111 80 121.111C89.0823 121.111 96.4444 128.473 96.4444 137.556V154C96.4444 163.082 89.0823 170.444 80 170.444ZM88.2222 80C88.2222 84.5411 84.5411 88.2222 80 88.2222C75.4589 88.2222 71.7778 84.5411 71.7778 80C71.7778 75.4589 75.4589 71.7778 80 71.7778C84.5411 71.7778 88.2222 75.4589 88.2222 80Z" stroke="#150029" stroke-width="11.9596" stroke-linecap="round" stroke-linejoin="round"/>
</svg>
