<svg width="187" height="188" viewBox="0 0 187 188" fill="none" xmlns="http://www.w3.org/2000/svg">
<path d="M77.2991 125.527L93.3749 109.451L109.451 125.527" stroke="#150029" stroke-width="10" stroke-miterlimit="10" stroke-linecap="square"/>
<path d="M93.375 93.375V109.451" stroke="#150029" stroke-width="10" stroke-miterlimit="10" stroke-linecap="square"/>
<path d="M93.3749 37.1516C99.7591 37.1516 105.882 39.6877 110.396 44.202C114.91 48.7164 117.447 54.8391 117.447 61.2233V69.6399H69.3032V61.2233C69.3032 54.8391 71.8393 48.7164 76.3536 44.202C80.868 39.6877 86.9907 37.1516 93.3749 37.1516Z" stroke="#150029" stroke-width="10" stroke-miterlimit="10" stroke-linecap="square"/>
<path d="M93.3749 37.1517C102.253 37.1517 109.451 29.9543 109.451 21.0758C109.451 12.1974 102.253 5 93.3749 5C84.4965 5 77.2991 12.1974 77.2991 21.0758C77.2991 29.9543 84.4965 37.1517 93.3749 37.1517Z" stroke="#150029" stroke-width="10" stroke-miterlimit="10" stroke-linecap="square"/>
<path d="M157.678 149.598C164.062 149.598 170.185 152.134 174.7 156.649C179.214 161.163 181.75 167.286 181.75 173.67V182.087H133.522V173.67C133.522 170.502 134.148 167.365 135.363 164.439C136.578 161.513 138.358 158.855 140.603 156.619C142.847 154.383 145.51 152.611 148.441 151.406C151.371 150.202 154.51 149.587 157.678 149.598Z" stroke="#150029" stroke-width="10" stroke-miterlimit="10" stroke-linecap="square"/>
<path d="M157.678 149.598C166.557 149.598 173.754 142.401 173.754 133.523C173.754 124.644 166.557 117.447 157.678 117.447C148.8 117.447 141.603 124.644 141.603 133.523C141.603 142.401 148.8 149.598 157.678 149.598Z" stroke="#150029" stroke-width="10" stroke-miterlimit="10" stroke-linecap="square"/>
<path d="M29.0717 149.598C32.2328 149.598 35.363 150.221 38.2835 151.431C41.204 152.64 43.8576 154.414 46.0929 156.649C48.3282 158.884 50.1013 161.538 51.311 164.458C52.5207 167.379 53.1433 170.509 53.1433 173.67V182.087H5V173.67C5 167.286 7.53611 161.163 12.0504 156.649C16.5647 152.135 22.6875 149.598 29.0717 149.598Z" stroke="#150029" stroke-width="10" stroke-miterlimit="10" stroke-linecap="square"/>
<path d="M29.0717 149.598C37.9501 149.598 45.1475 142.401 45.1475 133.523C45.1475 124.644 37.9501 117.447 29.0717 117.447C20.1932 117.447 12.9958 124.644 12.9958 133.523C12.9958 142.401 20.1932 149.598 29.0717 149.598Z" stroke="#150029" stroke-width="10" stroke-miterlimit="10" stroke-linecap="square"/>
</svg>
